<?xml version="1.0" standalone="no"?>
<!DOCTYPE svg PUBLIC "-//W3C//DTD SVG 20010904//EN"
 "http://www.w3.org/TR/2001/REC-SVG-20010904/DTD/svg10.dtd">
<svg version="1.0" xmlns="http://www.w3.org/2000/svg"
 width="144.000000pt" height="144.000000pt" viewBox="0 0 144.000000 144.000000"
 preserveAspectRatio="xMidYMid meet">

<g transform="translate(0.000000,144.000000) scale(0.100000,-0.100000)"
fill="#000000" stroke="none">
<path d="M630 1430 c-161 -22 -290 -87 -411 -210 -141 -141 -208 -304 -209
-503 0 -276 148 -518 393 -641 109 -55 198 -76 328 -76 322 0 603 212 689 522
25 91 28 283 5 373 -21 81 -84 208 -140 277 -147 186 -412 290 -655 258z m197
-205 c41 -77 83 -185 83 -212 0 -10 -32 -13 -143 -13 l-143 0 -30 43 -30 42
24 55 c13 30 40 81 59 113 l35 58 52 -3 51 -3 42 -80z m-317 42 c0 -1 -15 -38
-34 -81 -27 -63 -41 -82 -64 -92 -16 -6 -42 -28 -58 -48 -27 -34 -32 -36 -87
-36 l-58 0 17 33 c26 50 143 158 209 194 54 29 75 38 75 30z m516 -33 c67 -40
151 -118 195 -181 16 -23 29 -44 29 -48 0 -3 -46 -4 -102 -3 l-102 3 -36 105
c-20 58 -41 115 -48 127 -24 44 -14 44 64 -3z m-665 -377 c14 -18 18 -53 20
-165 l4 -142 -117 0 -116 0 -11 50 c-14 65 -14 165 0 230 l11 50 96 0 c89 -1
98 -2 113 -23z m583 7 c3 -9 6 -64 6 -122 l-1 -107 -38 -18 c-21 -9 -44 -28
-51 -42 l-13 -25 -167 0 -167 0 -7 38 c-3 20 -6 76 -6 124 l0 88 40 20 c21 11
44 29 50 40 10 19 21 20 179 20 145 0 170 -2 175 -16z m368 -19 c11 -38 11
-208 0 -255 l-8 -35 -93 -3 c-91 -3 -93 -2 -114 25 -20 24 -23 43 -27 165 l-5
139 119 -3 120 -3 8 -30z m-882 -486 c12 -39 32 -96 46 -126 13 -31 24 -57 24
-59 0 -23 -125 53 -188 114 -26 26 -62 68 -80 95 l-33 47 105 0 104 0 22 -71z
m433 36 l27 -34 -20 -53 c-11 -29 -37 -82 -58 -118 l-37 -65 -52 -3 -52 -3
-30 53 c-37 64 -89 186 -97 228 l-6 30 148 0 149 0 28 -35z m371 3 c-28 -54
-154 -171 -222 -207 -35 -18 -65 -31 -67 -29 -2 2 12 43 33 91 29 69 42 89 63
96 15 5 40 25 55 45 28 34 32 36 92 36 l63 0 -17 -32z"/>
</g>
</svg>
